
<svg xmlns="http://www.w3.org/2000/svg" viewBox="0 0 500 500">
  <path d="M250 100c-82.8 0-150 67.2-150 150s67.2 150 150 150 150-67.2 150-150-67.2-150-150-150zm0 280c-71.7 0-130-58.3-130-130s58.3-130 130-130 130 58.3 130 130-58.3 130-130 130z" fill="#0097FB"/>
  <path d="M320 220c-11 0-20 9-20 20s9 20 20 20 20-9 20-20-9-20-20-20zm-140 0c-11 0-20 9-20 20s9 20 20 20 20-9 20-20-9-20-20-20z" fill="#0097FB"/>
  <path d="M250 320c-27.6 0-50-22.4-50-50s22.4-50 50-50 50 22.4 50 50-22.4 50-50 50z" fill="#0097FB"/>
</svg>
